<svg width="173" height="36" viewBox="0 0 173 36" fill="none" xmlns="http://www.w3.org/2000/svg">
<path d="M0 9C0 4.02944 4.02944 0 9 0H155.728C163.007 0 167.275 8.19061 163.105 14.1562L150.523 32.1562C148.839 34.565 146.086 36 143.147 36H9C4.02943 36 0 31.9706 0 27V9Z" fill="#D22222"/>
<path d="M13.817 25.5V10.3472H19.7952C20.9396 10.3472 21.9162 10.5519 22.7252 10.9613C23.539 11.3658 24.1581 11.9404 24.5823 12.6853C25.0114 13.4251 25.226 14.2957 25.226 15.297C25.226 16.3033 25.0089 17.1689 24.5749 17.894C24.1408 18.6142 23.5119 19.1666 22.6882 19.5514C21.8694 19.9361 20.8779 20.1285 19.7138 20.1285H15.7111V17.5537H19.1959C19.8076 17.5537 20.3156 17.4698 20.7201 17.3021C21.1246 17.1344 21.4254 16.8828 21.6227 16.5474C21.825 16.212 21.9261 15.7952 21.9261 15.297C21.9261 14.7939 21.825 14.3697 21.6227 14.0244C21.4254 13.6792 21.1221 13.4177 20.7127 13.2402C20.3082 13.0577 19.7977 12.9664 19.1811 12.9664H17.0207V25.5H13.817ZM22.0001 18.6043L25.7661 25.5H22.2294L18.5448 18.6043H22.0001ZM32.4269 25.722C31.2578 25.722 30.2516 25.4852 29.4081 25.0117C28.5696 24.5332 27.9234 23.8575 27.4697 22.9844C27.0159 22.1064 26.789 21.0681 26.789 19.8695C26.789 18.7005 27.0159 17.6745 27.4697 16.7916C27.9234 15.9087 28.5622 15.2206 29.3859 14.7273C30.2146 14.2341 31.1863 13.9874 32.3011 13.9874C33.0508 13.9874 33.7488 14.1083 34.3949 14.35C35.046 14.5867 35.6133 14.9444 36.0967 15.4228C36.585 15.9013 36.9648 16.503 37.2361 17.2281C37.5074 17.9483 37.643 18.7917 37.643 19.7585V20.6242H28.0468V18.6709H34.6761C34.6761 18.2171 34.5774 17.8151 34.3801 17.4649C34.1828 17.1147 33.9091 16.8409 33.5589 16.6436C33.2136 16.4414 32.8116 16.3403 32.3529 16.3403C31.8744 16.3403 31.4502 16.4512 31.0803 16.6732C30.7153 16.8902 30.4292 17.1837 30.222 17.5537C30.0148 17.9187 29.9088 18.3256 29.9039 18.7745V20.6316C29.9039 21.1939 30.0074 21.6797 30.2146 22.0891C30.4267 22.4985 30.7251 22.8142 31.1099 23.0362C31.4946 23.2582 31.9509 23.3691 32.4786 23.3691C32.8289 23.3691 33.1495 23.3198 33.4405 23.2212C33.7315 23.1225 33.9806 22.9745 34.1878 22.7772C34.3949 22.5799 34.5528 22.3382 34.6613 22.0522L37.5764 22.2445C37.4285 22.9449 37.1251 23.5566 36.6664 24.0794C36.2126 24.5973 35.6256 25.0018 34.9055 25.2928C34.1902 25.5789 33.364 25.722 32.4269 25.722ZM44.8347 25.722C43.6706 25.722 42.6693 25.4753 41.8308 24.9821C40.9972 24.4839 40.3559 23.7933 39.9071 22.9104C39.4631 22.0275 39.2412 21.0114 39.2412 19.8621C39.2412 18.698 39.4656 17.677 39.9145 16.799C40.3683 15.9161 41.0119 15.228 41.8455 14.7347C42.6791 14.2365 43.6706 13.9874 44.8199 13.9874C45.8113 13.9874 46.6794 14.1675 47.4243 14.5276C48.1691 14.8876 48.7585 15.3932 49.1926 16.0443C49.6266 16.6954 49.8659 17.46 49.9103 18.3379H46.9359C46.8521 17.7707 46.6301 17.3144 46.27 16.9692C45.9149 16.619 45.4488 16.4439 44.8717 16.4439C44.3833 16.4439 43.9567 16.577 43.5917 16.8434C43.2316 17.1048 42.9504 17.4871 42.7482 17.9902C42.546 18.4933 42.4449 19.1025 42.4449 19.8177C42.4449 20.5428 42.5435 21.1594 42.7408 21.6674C42.943 22.1755 43.2267 22.5627 43.5917 22.829C43.9567 23.0954 44.3833 23.2286 44.8717 23.2286C45.2317 23.2286 45.5548 23.1546 45.8409 23.0066C46.1319 22.8586 46.3712 22.6441 46.5586 22.3629C46.751 22.0768 46.8767 21.734 46.9359 21.3345H49.9103C49.8609 22.2026 49.6242 22.9671 49.2 23.6281C48.7807 24.2841 48.2011 24.7971 47.4612 25.1671C46.7214 25.537 45.8458 25.722 44.8347 25.722ZM51.9283 25.5V14.1354H55.0802V25.5H51.9283ZM53.5116 12.6705C53.043 12.6705 52.641 12.5151 52.3056 12.2043C51.9751 11.8886 51.8099 11.5113 51.8099 11.0723C51.8099 10.6382 51.9751 10.2658 52.3056 9.95509C52.641 9.63941 53.043 9.48157 53.5116 9.48157C53.9802 9.48157 54.3798 9.63941 54.7102 9.95509C55.0457 10.2658 55.2134 10.6382 55.2134 11.0723C55.2134 11.5113 55.0457 11.8886 54.7102 12.2043C54.3798 12.5151 53.9802 12.6705 53.5116 12.6705ZM57.605 29.7617V14.1354H60.7125V16.0443H60.8531C60.9912 15.7385 61.191 15.4277 61.4524 15.1121C61.7188 14.7914 62.064 14.5251 62.4882 14.313C62.9174 14.096 63.4501 13.9874 64.0864 13.9874C64.9151 13.9874 65.6796 14.2045 66.38 14.6385C67.0804 15.0677 67.6403 15.7163 68.0595 16.5844C68.4788 17.4476 68.6884 18.5303 68.6884 19.8325C68.6884 21.1002 68.4837 22.1705 68.0743 23.0436C67.6699 23.9117 67.1174 24.5702 66.417 25.0191C65.7215 25.463 64.9422 25.685 64.079 25.685C63.4674 25.685 62.947 25.5839 62.5178 25.3816C62.0936 25.1794 61.7459 24.9254 61.4746 24.6195C61.2033 24.3088 60.9961 23.9956 60.8531 23.6799H60.7569V29.7617H57.605ZM60.6903 19.8177C60.6903 20.4935 60.784 21.0829 60.9715 21.586C61.1589 22.0891 61.4302 22.4813 61.7854 22.7624C62.1405 23.0387 62.5721 23.1768 63.0801 23.1768C63.5931 23.1768 64.0272 23.0362 64.3823 22.755C64.7375 22.469 65.0063 22.0743 65.1888 21.5712C65.3762 21.0632 65.47 20.4787 65.47 19.8177C65.47 19.1617 65.3787 18.5846 65.1962 18.0864C65.0137 17.5882 64.7449 17.1985 64.3897 16.9174C64.0346 16.6362 63.5981 16.4956 63.0801 16.4956C62.5672 16.4956 62.1331 16.6313 61.778 16.9026C61.4277 17.1739 61.1589 17.5586 60.9715 18.0568C60.784 18.555 60.6903 19.142 60.6903 19.8177ZM75.9689 25.722C74.7999 25.722 73.7936 25.4852 72.9502 25.0117C72.1116 24.5332 71.4655 23.8575 71.0117 22.9844C70.5579 22.1064 70.331 21.0681 70.331 19.8695C70.331 18.7005 70.5579 17.6745 71.0117 16.7916C71.4655 15.9087 72.1042 15.2206 72.928 14.7273C73.7566 14.2341 74.7283 13.9874 75.8431 13.9874C76.5928 13.9874 77.2908 14.1083 77.937 14.35C78.5881 14.5867 79.1553 14.9444 79.6387 15.4228C80.127 15.9013 80.5068 16.503 80.7781 17.2281C81.0494 17.9483 81.185 18.7917 81.185 19.7585V20.6242H71.5888V18.6709H78.2181C78.2181 18.2171 78.1195 17.8151 77.9222 17.4649C77.7249 17.1147 77.4511 16.8409 77.1009 16.6436C76.7556 16.4414 76.3536 16.3403 75.8949 16.3403C75.4164 16.3403 74.9922 16.4512 74.6223 16.6732C74.2573 16.8902 73.9712 17.1837 73.764 17.5537C73.5569 17.9187 73.4508 18.3256 73.4459 18.7745V20.6316C73.4459 21.1939 73.5495 21.6797 73.7566 22.0891C73.9687 22.4985 74.2672 22.8142 74.6519 23.0362C75.0366 23.2582 75.4929 23.3691 76.0207 23.3691C76.3709 23.3691 76.6915 23.3198 76.9825 23.2212C77.2735 23.1225 77.5226 22.9745 77.7298 22.7772C77.937 22.5799 78.0948 22.3382 78.2033 22.0522L81.1185 22.2445C80.9705 22.9449 80.6671 23.5566 80.2084 24.0794C79.7546 24.5973 79.1676 25.0018 78.4475 25.2928C77.7323 25.5789 76.9061 25.722 75.9689 25.722ZM90.7351 25.5H87.302L92.533 10.3472H96.6615L101.885 25.5H98.452L94.6564 13.8099H94.5381L90.7351 25.5ZM90.5205 19.544H98.6296V22.0448H90.5205V19.544ZM103.65 29.7617V14.1354H106.757V16.0443H106.898C107.036 15.7385 107.236 15.4277 107.497 15.1121C107.763 14.7914 108.109 14.5251 108.533 14.313C108.962 14.096 109.495 13.9874 110.131 13.9874C110.96 13.9874 111.724 14.2045 112.425 14.6385C113.125 15.0677 113.685 15.7163 114.104 16.5844C114.523 17.4476 114.733 18.5303 114.733 19.8325C114.733 21.1002 114.528 22.1705 114.119 23.0436C113.715 23.9117 113.162 24.5702 112.462 25.0191C111.766 25.463 110.987 25.685 110.124 25.685C109.512 25.685 108.992 25.5839 108.563 25.3816C108.138 25.1794 107.791 24.9254 107.519 24.6195C107.248 24.3088 107.041 23.9956 106.898 23.6799H106.802V29.7617H103.65ZM106.735 19.8177C106.735 20.4935 106.829 21.0829 107.016 21.586C107.204 22.0891 107.475 22.4813 107.83 22.7624C108.185 23.0387 108.617 23.1768 109.125 23.1768C109.638 23.1768 110.072 23.0362 110.427 22.755C110.782 22.469 111.051 22.0743 111.233 21.5712C111.421 21.0632 111.515 20.4787 111.515 19.8177C111.515 19.1617 111.423 18.5846 111.241 18.0864C111.058 17.5882 110.79 17.1985 110.434 16.9174C110.079 16.6362 109.643 16.4956 109.125 16.4956C108.612 16.4956 108.178 16.6313 107.823 16.9026C107.472 17.1739 107.204 17.5586 107.016 18.0568C106.829 18.555 106.735 19.142 106.735 19.8177ZM116.834 29.7617V14.1354H119.942V16.0443H120.082C120.221 15.7385 120.42 15.4277 120.682 15.1121C120.948 14.7914 121.293 14.5251 121.718 14.313C122.147 14.096 122.679 13.9874 123.316 13.9874C124.144 13.9874 124.909 14.2045 125.609 14.6385C126.31 15.0677 126.87 15.7163 127.289 16.5844C127.708 17.4476 127.918 18.5303 127.918 19.8325C127.918 21.1002 127.713 22.1705 127.304 23.0436C126.899 23.9117 126.347 24.5702 125.646 25.0191C124.951 25.463 124.172 25.685 123.308 25.685C122.697 25.685 122.176 25.5839 121.747 25.3816C121.323 25.1794 120.975 24.9254 120.704 24.6195C120.433 24.3088 120.226 23.9956 120.082 23.6799H119.986V29.7617H116.834ZM119.92 19.8177C119.92 20.4935 120.013 21.0829 120.201 21.586C120.388 22.0891 120.66 22.4813 121.015 22.7624C121.37 23.0387 121.801 23.1768 122.31 23.1768C122.822 23.1768 123.257 23.0362 123.612 22.755C123.967 22.469 124.236 22.0743 124.418 21.5712C124.606 21.0632 124.699 20.4787 124.699 19.8177C124.699 19.1617 124.608 18.5846 124.426 18.0864C124.243 17.5882 123.974 17.1985 123.619 16.9174C123.264 16.6362 122.827 16.4956 122.31 16.4956C121.797 16.4956 121.362 16.6313 121.007 16.9026C120.657 17.1739 120.388 17.5586 120.201 18.0568C120.013 18.555 119.92 19.142 119.92 19.8177Z" fill="white"/>
</svg>
